:SAMPLES-PER-SECOND 30
:FRAME-RANGE 1-668
:FULLY-SPECIFIED
:DEGREES
147
root  1.40699 39.473 26.254 -172.731 -15.4334 -179.593
RightUpLeg  -9.41797 -6.05985 -2.85735
RightLeg  17.5052 -4.05441 -1.5848
RightFoot  -13.5077 0.0348257 6.68679
RightToes  5.38607e-012 1.2921e-014 -6.02303e-014
Spine  -3.06225 -1.3053 -1.66424
Spine1  7.85821 -2.23324 3.56555
HEad  17.656 63.7052 -0.076904
LeftShoulder1  0.702379 -1.45082 -7.41689
LeftArm  -33.3 -16.838 3.92993
LeftForeArm  38.4722 -15.3425 -3.80457
LeftHand  0.132553 7.18243 10.196
RightShoulder  1.71576 1.49877 29.7921
RightArm  -18.7575 -6.16626 25.2288
RightForeArm  89.8831 40.0978 4.86978
RightHand  2.56331 -15.3175 -29.1822
LeftUpLeg  -15.7237 -5.89775 4.61523
LeftLeg  19.1711 -2.18983 -0.517595
LeftFoot  -9.86747 0.107293 -3.74157
LeftToes  -6.11857e-011 5.00151e-011 -2.22593e-011
148
root  1.23151 39.4571 26.3165 -172.727 -13.8996 179.749
RightUpLeg  -9.92527 -5.09558 -3.97625
RightLeg  18.3311 -3.51551 -1.50889
RightFoot  -13.7163 0.0531899 7.05245
RightToes  5.38607e-012 1.2921e-014 -6.02303e-014
Spine  -2.82877 -1.06242 -0.573684
Spine1  7.45047 -1.37254 0.895128
HEad  18.7705 63.6799 0.752517
LeftShoulder1  0.684689 -1.06935 -8.40553
LeftArm  -33.1189 -17.005 3.81219
LeftForeArm  39.1139 -14.6529 -3.92535
LeftHand  0.171693 7.29945 11.8233
RightShoulder  1.76291 1.79392 28.6278
RightArm  -18.5658 -6.3211 26.0615
RightForeArm  88.8146 39.7987 4.81373
RightHand  2.53512 -14.9982 -29.7857
LeftUpLeg  -15.1715 -6.03531 3.48937
LeftLeg  18.8755 -0.652962 0.0935916
LeftFoot  -9.84585 0.107686 -3.72745
LeftToes  -6.11857e-011 5.00151e-011 -2.22593e-011
149
root  1.06108 39.4324 26.3737 -172.654 -12.1059 178.945
RightUpLeg  -10.6707 -3.50956 -5.27802
RightLeg  19.382 -3.2991 -1.49931
RightFoot  -13.9378 0.0739042 7.42957
RightToes  5.38607e-012 1.2921e-014 -6.02303e-014
Spine  -2.72137 -0.818317 0.116591
Spine1  7.24885 -0.634653 -1.20522
HEad  19.7159 63.7947 1.06584
LeftShoulder1  0.634791 -0.520749 -9.45382
LeftArm  -31.6592 -16.5816 3.82761
LeftForeArm  38.8239 -14.9917 -4.10047
LeftHand  0.198985 7.10405 14.6791
RightShoulder  1.81393 2.15115 27.264
RightArm  -18.0129 -6.30354 26.8819
RightForeArm  88.2172 40.0006 4.87501
RightHand  2.56051 -14.9439 -30.2222
LeftUpLeg  -14.6795 -5.48664 2.13851
LeftLeg  18.6222 0.488015 0.615469
LeftFoot  -9.85975 0.104951 -3.54414
LeftToes  -6.11857e-011 5.00151e-011 -2.22593e-011
150
root  0.87829 39.3898 26.4165 -172.667 -10.0294 178.476
RightUpLeg  -11.438 -2.24196 -6.29818
RightLeg  20.2795 -2.4847 -1.22702
RightFoot  -14.0961 0.0857576 7.53939
RightToes  5.38607e-012 1.2921e-014 -6.02303e-014
Spine  -2.75189 -0.473239 1.34568
Spine1  7.29149 0.222663 -3.48142
HEad  20.4821 63.7348 1.00818
LeftShoulder1  0.55559 0.158471 -10.6365
LeftArm  -29.6734 -16.4064 4.53153
LeftForeArm  38.3473 -15.2825 -4.36576
LeftHand  0.283501 7.28584 18.1088
RightShoulder  1.87953 2.56859 25.9773
RightArm  -16.7368 -6.33918 27.097
RightForeArm  87.3936 40.9626 5.13484
RightHand  2.58617 -14.9674 -30.4324
LeftUpLeg  -14.3188 -4.77338 1.09763
LeftLeg  18.71 1.70023 1.2003
LeftFoot  -10.1565 0.0972955 -3.51982
LeftToes  -6.11857e-011 5.00151e-011 -2.22593e-011
151
root  0.703731 39.3582 26.4558 -172.68 -8.104 178.211
RightUpLeg  -12.0109 -0.953315 -7.0735
RightLeg  20.6793 -1.82898 -0.973878
RightFoot  -14.1573 0.0949191 7.76447
RightToes  5.38607e-012 1.2921e-014 -6.02303e-014
Spine  -2.60961 -0.22099 2.09066
Spine1  7.21034 0.721846 -4.61444
HEad  20.5 63.8203 -0.31017
LeftShoulder1  0.433235 0.941854 -11.3837
LeftArm  -28.5232 -14.8791 5.21292
LeftForeArm  36.3378 -17.9065 -3.86745
LeftHand  0.220411 7.28059 14.6511
RightShoulder  1.86685 2.7581 24.7123
RightArm  -14.8869 -5.76775 26.7802
RightForeArm  86.2419 42.0758 5.44976
RightHand  2.61766 -15.1659 -30.1891
LeftUpLeg  -14.1252 -4.60846 0.324196
LeftLeg  18.9232 3.30865 1.90924
LeftFoot  -10.4406 0.0906272 -3.56575
LeftToes  -6.11857e-011 5.00151e-011 -2.22593e-011
152
root  0.56965 39.3117 26.516 -172.593 -6.73021 178.015
RightUpLeg  -12.7263 -0.131514 -7.65973
RightLeg  21.2209 -1.33036 -0.781435
RightFoot  -14.2985 0.10979 8.00565
RightToes  5.38607e-012 1.2921e-014 -6.02303e-014
Spine  -2.4931 -0.202629 2.1419
Spine1  7.33239 0.768488 -4.7007
HEad  19.4015 63.971 -2.56399
LeftShoulder1  0.289958 1.70124 -11.1026
LeftArm  -26.2668 -13.3673 6.33421
LeftForeArm  34.6448 -20.0698 -3.53792
LeftHand  0.0194786 7.25822 3.38092
RightShoulder  1.88193 2.91822 24.1366
RightArm  -13.0502 -4.48965 25.6772
RightForeArm  84.7573 42.8002 5.67833
RightHand  2.6045 -15.2095 -29.923
LeftUpLeg  -14.3472 -4.48584 -0.17529
LeftLeg  19.4174 4.50042 2.3235
LeftFoot  -10.6787 0.0845491 -3.54979
LeftToes  -6.11857e-011 5.00151e-011 -2.22593e-011
153
root  0.506007 39.2464 26.5952 -172.577 -6.03802 178.079
RightUpLeg  -13.3685 0.66461 -7.76394
RightLeg  21.9233 -1.46604 -0.86207
RightFoot  -14.4802 0.124052 8.10652
RightToes  5.38607e-012 1.2921e-014 -6.02303e-014
Spine  -2.40736 -0.319405 1.29709
Spine1  7.79374 0.397135 -3.54633
HEad  17.6072 63.4538 -5.10277
LeftShoulder1  0.300172 1.33536 -7.93648
LeftArm  -18.7437 -11.031 5.57241
LeftForeArm  28.2584 -19.7477 -4.08294
LeftHand  0.00591541 4.45536 -4.23954
RightShoulder  1.85455 2.76567 24.4583
RightArm  -11.0113 -2.13847 23.6885
RightForeArm  82.4627 42.8898 5.76015
RightHand  2.62388 -15.269 -29.9592
LeftUpLeg  -14.9052 -4.31218 -0.185968
LeftLeg  20.427 4.93467 2.44837
LeftFoot  -11.0818 0.0744726 -3.55029
LeftToes  -6.11857e-011 5.00151e-011 -2.22593e-011
154
root  0.508866 39.1693 26.6972 -172.77 -6.56143 178.382
RightUpLeg  -13.5577 0.47904 -7.40945
RightLeg  22.5929 -1.66199 -0.973787
RightFoot  -14.8092 0.147178 8.17325
RightToes  5.38607e-012 1.2921e-014 -6.02303e-014
Spine  -2.53764 -0.788155 -1.49287
Spine1  9.34567 -1.06947 0.555625
HEad  13.7819 62.9622 -9.66988
LeftShoulder1  0.483841 -1.10697 -3.12854
LeftArm  -3.36438 -5.07273 3.05811
LeftForeArm  11.3884 -20.7549 -4.8244
LeftHand  0.345971 1.10295 -9.64394
RightShoulder  1.80885 2.43749 25.4483
RightArm  -9.4754 1.97298 21.0451
RightForeArm  79.214 41.6308 5.50959
RightHand  2.70514 -15.3659 -30.5368
LeftUpLeg  -15.6484 -5.0639 0.224134
LeftLeg  21.8354 5.09006 2.5835
LeftFoot  -11.4916 0.0641357 -3.61705
LeftToes  -6.11857e-011 5.00151e-011 -2.22593e-011
155
root  0.527421 39.0846 26.7898 -172.791 -8.34006 178.922
RightUpLeg  -13.6057 -0.991583 -6.6927
RightLeg  23.086 -1.84423 -1.07821
RightFoot  -15.1793 0.17408 8.2609
RightToes  5.38607e-012 1.2921e-014 -6.02303e-014
Spine  -3.14438 -1.65319 -5.07882
Spine1  11.6339 -3.40975 5.91799
HEad  9.41385 62.0429 -13.5324
LeftShoulder1  0.588853 -4.67717 0.947057
LeftArm  17.5617 1.15316 1.68051
LeftForeArm  -11.384 -23.2001 -5.59892
LeftHand  0.907829 -2.2166 -13.6465
RightShoulder  1.73163 1.95673 26.9075
RightArm  -9.14675 7.27226 18.8787
RightForeArm  76.1828 37.9305 4.65814
RightHand  2.68943 -14.7128 -32.3577
LeftUpLeg  -16.801 -6.5416 0.996876
LeftLeg  23.3258 4.7733 2.5938
LeftFoot  -11.927 0.053335 -3.55115
LeftToes  -6.11857e-011 5.00151e-011 -2.22593e-011
156
root  0.502909 39.0144 26.8645 -172.511 -10.8501 -179.814
RightUpLeg  -13.6734 -3.93052 -5.1543
RightLeg  22.9684 -1.56882 -0.94676
RightFoot  -15.2018 0.176331 8.28384
RightToes  5.38607e-012 1.2921e-014 -6.02303e-014
Spine  -4.05641 -2.53375 -7.47552
Spine1  13.7257 -5.94368 11.1925
HEad  6.23471 60.5555 -16.0922
LeftShoulder1  0.436434 -7.96237 4.95262
LeftArm  34.8093 5.39605 -0.47758
LeftForeArm  -25.2664 -26.322 -6.83521
LeftHand  1.3419 -3.84051 -16.5087
RightShoulder  1.60872 1.38365 28.3396
RightArm  -9.73209 12.0888 16.7693
RightForeArm  73.0646 33.6225 3.753
RightHand  2.67232 -14.0955 -34.2814
LeftUpLeg  -18.6411 -8.41255 2.61185
LeftLeg  25.0132 4.21939 2.4866
LeftFoot  -12.3688 0.0422985 -3.54978
LeftToes  -6.11857e-011 5.00151e-011 -2.22593e-011
157
root  0.447655 38.9309 26.9295 -172.195 -13.1562 -178.476
RightUpLeg  -13.7732 -5.82368 -3.62796
RightLeg  22.5742 -1.80908 -1.04462
RightFoot  -15.4209 0.202555 8.61482
RightToes  5.38607e-012 1.2921e-014 -6.02303e-014
Spine  -4.26868 -2.93126 -8.31759
Spine1  14.3538 -7.63618 15.2427
HEad  4.94951 58.3536 -17.39
LeftShoulder1  0.151358 -10.2905 8.11664
LeftArm  46.6362 6.54099 -1.95164
LeftForeArm  -26.2472 -30.2337 -7.86086
LeftHand  1.36654 -3.81062 -16.8683
RightShoulder  1.47748 0.857058 29.5399
RightArm  -11.3781 15.3661 14.8979
RightForeArm  70.1036 28.845 2.82789
RightHand  2.50852 -13.0018 -36.6121
LeftUpLeg  -20.6956 -9.76693 4.26018
LeftLeg  26.8355 3.42697 2.22426
LeftFoot  -12.8351 0.0312813 -3.50059
LeftToes  -6.11857e-011 5.00151e-011 -2.22593e-011
